<svg xmlns="http://www.w3.org/2000/svg" viewBox="0 0 400 600">
  <!-- Background -->
  <rect width="400" height="600" fill="#f0f5f9"/>
  
  <!-- Soft blue background elements -->
  <ellipse cx="200" cy="300" rx="200" ry="300" fill="#e6f2ff" opacity="0.3"/>
  
  <!-- Winter sun circle -->
  <circle cx="200" cy="150" r="40" fill="#4b6584"/>
  <circle cx="200" cy="150" r="60" fill="#a5cce6" opacity="0.6"/>
  
  <!-- Radiating lines around sun -->
  <g stroke="#2d3436" stroke-width="1">
    <!-- Top lines -->
    <line x1="200" y1="80" x2="200" y2="60" />
    <line x1="180" y1="85" x2="170" y2="65" />
    <line x1="220" y1="85" x2="230" y2="65" />
    
    <!-- Right lines -->
    <line x1="250" y1="150" x2="270" y2="150" />
    <line x1="245" y1="130" x2="265" y2="120" />
    <line x1="245" y1="170" x2="265" y2="180" />
    
    <!-- Left lines -->
    <line x1="150" y1="150" x2="130" y2="150" />
    <line x1="155" y1="130" x2="135" y2="120" />
    <line x1="155" y1="170" x2="135" y2="180" />
  </g>
  
  <!-- Stylized Cactus -->
  <g stroke="#2d5a27" stroke-width="1">
    <path d="M200 400 L200 450" stroke="#2d5a27" stroke-width="2"/>
    <!-- Left arm -->
    <path d="M200 420 L185 405 L185 420" fill="none"/>
    <!-- Right arm -->
    <path d="M200 430 L215 415 L215 430" fill="none"/>
    <!-- Geometric pattern on cactus -->
    <line x1="200" y1="410" x2="205" y2="410"/>
    <line x1="200" y1="420" x2="205" y2="420"/>
    <line x1="200" y1="430" x2="205" y2="430"/>
  </g>
  
  <!-- Bottom geometric elements -->
  <g stroke="#7795b5" stroke-width="1" fill="none">
    <!-- Left element -->
    <!-- Snow cap on left element -->
    <path d="M 110 400 Q 115 395 120 400 Q 125 395 130 400" fill="#ffffff" stroke="#ffffff"/>
    <path d="M 120 400 L 120 450 M 110 420 Q 120 410 130 420 M 120 450 L 140 450" />
    
    <!-- Middle element -->
    <line x1="50" y1="450" x2="350" y2="450" />
    
    <!-- Right element -->
    <!-- Snow cap on right element -->
    <path d="M 270 400 Q 275 395 280 400 Q 285 395 290 400" fill="#ffffff" stroke="#ffffff"/>
    <path d="M 280 400 L 280 450 M 270 420 C 280 410 290 410 295 420 L 300 430" />
    
    <!-- Small lines on right -->
    <line x1="320" y1="460" x2="340" y2="460" />
    <line x1="320" y1="465" x2="340" y2="465" />
    <line x1="320" y1="470" x2="340" y2="470" />
  </g>
  
  <!-- Additional small snow details -->
  <g fill="#ffffff">
    <circle cx="115" cy="398" r="1"/>
    <circle cx="125" cy="397" r="0.8"/>
    <circle cx="275" cy="398" r="1"/>
    <circle cx="285" cy="397" r="0.8"/>
  </g>
</svg>