<svg xmlns="http://www.w3.org/2000/svg" viewBox="0 0 400 600">
  <!-- Background -->
  <rect width="400" height="600" fill="#f4d03f"/>
  
  <!-- Warm background elements -->
  <ellipse cx="200" cy="300" rx="200" ry="300" fill="#ff9642" opacity="0.3"/>
  
  <!-- Sun circle -->
  <circle cx="200" cy="150" r="40" fill="#c0392b"/>
  <circle cx="200" cy="150" r="60" fill="#f39c12" opacity="0.7"/>
  
  <!-- Radiating lines around sun -->
  <g stroke="#8b4513" stroke-width="1">
    <!-- Top lines -->
    <line x1="200" y1="80" x2="200" y2="60" />
    <line x1="180" y1="85" x2="170" y2="65" />
    <line x1="220" y1="85" x2="230" y2="65" />
    
    <!-- Right lines -->
    <line x1="250" y1="150" x2="270" y2="150" />
    <line x1="245" y1="130" x2="265" y2="120" />
    <line x1="245" y1="170" x2="265" y2="180" />
    
    <!-- Left lines -->
    <line x1="150" y1="150" x2="130" y2="150" />
    <line x1="155" y1="130" x2="135" y2="120" />
    <line x1="155" y1="170" x2="135" y2="180" />
  </g>
  
  <!-- Stylized Cactus -->
  <g stroke="#2d5a27" stroke-width="1">
    <path d="M200 400 L200 450" stroke="#2d5a27" stroke-width="2"/>
    <!-- Left arm -->
    <path d="M200 420 L185 405 L185 420" fill="none"/>
    <!-- Right arm -->
    <path d="M200 430 L215 415 L215 430" fill="none"/>
    <!-- Geometric pattern on cactus -->
    <line x1="200" y1="410" x2="205" y2="410"/>
    <line x1="200" y1="420" x2="205" y2="420"/>
    <line x1="200" y1="430" x2="205" y2="430"/>
  </g>
  
  <!-- Bottom geometric elements -->
  <g stroke="#d35400" stroke-width="1" fill="none">
    <!-- Left element -->
    <path d="M120 400 L120 450 M110 420 Q120 410 130 420 M120 450 L140 450" />
    
    <!-- Middle element -->
    <line x1="50" y1="450" x2="350" y2="450" />
    
    <!-- Right element -->
    <path d="M280 400 L280 450 M270 420 C280 410 290 410 295 420 L300 430" />
    
    <!-- Small lines on right -->
    <line x1="320" y1="460" x2="340" y2="460" />
    <line x1="320" y1="465" x2="340" y2="465" />
    <line x1="320" y1="470" x2="340" y2="470" />
  </g>
</svg>